HIERARCHY
ROOT Hips
{
  OFFSET -242.61 96.3558 211.417
  CHANNELS 6 Xposition Yposition Zposition Zrotation Xrotation Yrotation
  JOINT ToSpine
  {
    OFFSET -0.0105055 1.38907 -7.13956
    CHANNELS 3 Zrotation Xrotation Yrotation
    JOINT Spine
    {
      OFFSET 0.0105055 10 1
      CHANNELS 3 Zrotation Xrotation Yrotation
      JOINT Spine1
      {
        OFFSET 0 12 1.60637
        CHANNELS 3 Zrotation Xrotation Yrotation
        JOINT Neck
        {
          OFFSET 0 27 2.26658
          CHANNELS 3 Zrotation Xrotation Yrotation
          JOINT Head
          {
            OFFSET 0 9 2.12705
            CHANNELS 3 Zrotation Xrotation Yrotation
            End Site
            {
              OFFSET 0 11 2
            }
          }
        }
        JOINT LeftShoulder
        {
          OFFSET 8 19.6109 2.86452
          CHANNELS 3 Zrotation Xrotation Yrotation
          JOINT LeftArm
          {
            OFFSET 12 1 0.681055
            CHANNELS 3 Zrotation Xrotation Yrotation
            JOINT LeftForeArm
            {
              OFFSET 19 0 -1.52608
              CHANNELS 3 Zrotation Xrotation Yrotation
              JOINT LeftHand
              {
                OFFSET 23 0 0
                CHANNELS 3 Zrotation Xrotation Yrotation
                End Site
                {
                  OFFSET 10 0 0
                }
              }
            }
          }
        }
        JOINT RightShoulder
        {
          OFFSET -8 19.6109 2.86452
          CHANNELS 3 Zrotation Xrotation Yrotation
          JOINT RightArm
          {
            OFFSET -12 1 0.681055
            CHANNELS 3 Zrotation Xrotation Yrotation
            JOINT RightForeArm
            {
              OFFSET -19 0 -1.52608
              CHANNELS 3 Zrotation Xrotation Yrotation
              JOINT RightHand
              {
                OFFSET -23 0 0
                CHANNELS 3 Zrotation Xrotation Yrotation
                End Site
                {
                  OFFSET -10 0 0
                }
              }
            }
          }
        }
      }
    }
  }
  JOINT LeftUpLeg
  {
    OFFSET 9 -7.17245 0
    CHANNELS 3 Zrotation Xrotation Yrotation
    JOINT LeftLeg
    {
      OFFSET 0 -44.1113 0
      CHANNELS 3 Zrotation Xrotation Yrotation
      JOINT LeftFoot
      {
        OFFSET 0 -36.1829 0
        CHANNELS 3 Zrotation Xrotation Yrotation
        JOINT LeftToeBase
        {
          OFFSET 0 -4.84184 13
          CHANNELS 3 Zrotation Xrotation Yrotation
          End Site
          {
            OFFSET 0 1 6
          }
        }
      }
    }
  }
  JOINT RightUpLeg
  {
    OFFSET -9 -7.17245 0
    CHANNELS 3 Zrotation Xrotation Yrotation
    JOINT RightLeg
    {
      OFFSET 0 -44.0551 0
      CHANNELS 3 Zrotation Xrotation Yrotation
      JOINT RightFoot
      {
        OFFSET 0 -36.1469 0
        CHANNELS 3 Zrotation Xrotation Yrotation
        JOINT RightToeBase
        {
          OFFSET 0 -4.92256 13
          CHANNELS 3 Zrotation Xrotation Yrotation
          End Site
          {
            OFFSET 0 1 6
          }
        }
      }
    }
  }
}
MOTION
Frames:	17
Frame Time:	0.0333333
-87.7782 89.057 75.4496 -6.51082 5.27511 136.847 0 0 0 1.42627 9.50902 4.93224 -16.4087 -2.08578 7.89916 8.9098 -11.1711 -4.18857 -0.245165 3.93263 -2.13415 -26.0174 2.52007 -4.31691 -42.795 7.77244 -2.33719 -1.93621 -35.3025 5.60694 -10.2515 0.0738629 -0.823421 21.5838 4.61865 12.911 52.6107 2.54277 9.44594 1.8071 -6.57368 12.6981 0.358301 0.019154 6.11999 -12.7041 -34.3693 3.81522 -1.0593e-006 50.8255 -18.6987 14.5283 -13.3082 1.70391 -0.760472 -1.21558 3.65311 -8.47531 9.59712 -7.51903 4.84451e-007 58.7799 16.7601 -16.0164 8.50899 1.19926 4.83562 -18.7357 -5.40831 
-83.9899 89.8482 71.9336 -5.94322 5.04294 137.322 0 0 0 -0.481884 9.8977 4.31721 -13.5005 -2.95902 6.42534 10.4887 -9.25627 -4.02201 -0.617339 3.31977 -1.41693 -24.4664 2.41335 -4.34845 -43.2092 6.1379 -8.48248 -1.4575 -28.5028 3.50569 -9.98365 0.131397 -1.50426 20.8111 4.27307 12.0967 54.5394 1.67767 5.77588 2.00577 -7.65519 10.4804 -0.410183 -0.0203343 5.67607 -12.2301 -30.2092 3.37354 5.87865e-007 51.1852 -18.7703 17.2943 -16.0956 2.46363 -1.0002 -2.06974 5.09108 -9.62486 1.32968 -7.48132 -3.08722e-006 70.6864 17.2253 -20.7623 1.60828 0.294646 4.85064 -18.754 -5.17444 
-80.3673 91.9203 68.2765 -4.05375 3.37564 136.031 0 0 0 1.08593 9.52186 3.32682 -11.5723 -3.58503 5.14734 11.3328 -7.03983 -2.87339 -0.696415 4.41735 0.0887178 -23.595 2.29932 -4.1858 -42.8364 1.92487 -12.5249 -2.54041 -18.849 -6.22127 -10.2977 0.303785 -3.37042 20.485 4.15803 11.8514 54.5898 0.393263 2.99318 1.74069 -7.67158 7.62856 0.1357 0.00537359 4.53533 -8.02477 -24.4287 6.72235 -1.44003e-006 47.4587 -21.0039 17.7706 -18.0175 2.83959 -0.999829 -2.47708 5.28892 -8.29507 -8.02149 -6.32477 -1.10218e-006 78.3195 7.32363 -22.3726 -1.81343 -0.358647 4.72677 -18.2759 -5.49108 
-76.717 95.0812 64.688 -1.02971 2.03966 134.581 0 0 0 2.40766 9.58789 2.27935 -8.05218 -3.53917 3.56014 10.4607 -2.40475 -1.4027 0.220364 4.50559 1.44959 -23.0486 2.24321 -4.13087 -41.8097 -0.629892 -14.9785 -3.07835 -14.7533 -15.2234 -8.35176 0.302498 -4.14133 19.9587 4.24621 12.4614 53.5779 -0.709863 0.179208 1.91232 -11.3374 4.72346 -0.553675 -0.016657 3.44636 -3.46201 -15.9236 10.6889 -8.89013e-007 39.7538 -23.9931 14.2008 -19.5139 2.45412 -1.16175 7.09675 2.38172 -5.17197 -15.2346 -4.44179 -1.08301e-006 80.1976 -4.32432 -24.2172 -3.92776 -0.842969 4.68397 -18.2224 -6.2365 
-72.925 98.8101 60.9173 2.28322 1.19232 134.419 0 0 0 4.08273 9.79691 0.894793 -4.82392 -2.61528 1.74305 9.29185 1.84833 -0.427017 -0.0403174 4.8757 2.46959 -21.9436 2.24228 -4.40845 -40.6903 -2.7349 -18.3736 -3.54155 -12.3948 -19.6976 -5.66655 0.231141 -4.66786 19.3146 4.13223 12.3944 52.2905 -1.69085 -2.61153 1.6571 -12.559 2.93827 0.169307 0.00327759 2.21808 -0.803965 -6.98001 11.7129 -0.296827 30.0676 -22.5981 13.4448 -6.69234 0.789706 0.725388 -11.2212 0.142555 -1.90615 -19.4162 -2.46962 3.33083e-006 77.1635 -11.6771 -24.3447 -7.36253 -1.5902 4.34413 -16.5653 -5.25361 
-68.9616 102.646 57.1217 4.91788 0.579398 136.869 0 0 0 5.67477 9.81111 -1.19299 -2.88269 -2.37869 -0.720434 9.61523 7.94031 -0.435007 -0.97627 3.67783 3.29559 -19.1112 2.36274 -5.6905 -39.841 -3.97937 -21.4264 -4.27299 -12.3333 -21.6953 -5.84497 0.260275 -5.09495 20.2109 4.58542 13.5698 49.8219 -1.91384 -7.91321 2.29612 -16.7104 3.90885 -0.159324 -0.00433977 3.12054 0.724127 -1.49484 6.12571 -1.31841 24.1097 -17.8907 10.406 5.70145 -0.519598 1.29222 -11.7126 -3.6761 -0.0358362 -21.5633 -2.48069 -9.25106e-007 71.2814 -12.4425 -23.7526 -9.80498 -2.06682 3.81426 -14.2446 -5.97053 
-65.0534 105.149 53.4276 5.69866 0.556449 139.611 0 0 0 4.78655 8.92925 -2.39778 -0.144933 -1.5938 -2.59081 9.82561 13.101 -1.01348 -2.29073 0.595525 3.50805 -17.3262 2.51075 -6.9335 -38.506 -6.38062 -25.5921 -4.37483 -10.6432 -23.5597 -7.41193 0.359997 -5.55361 19.4289 4.72468 14.5674 49.0893 -1.59906 -13.0395 2.60354 -16.2414 5.08134 -0.316883 -0.0099441 3.5948 0.50753 0.114833 5.30351 0.334887 24.7356 -15.73 7.80223 10.0299 -0.685707 0.507377 -0.923633 -1.93388 -0.289448 -24.1469 -2.73309 -1.08966e-006 65.8708 -11.4196 -24.6376 -10.0123 -2.19179 4.42956 -16.9545 -5.37767 
-61.1738 106.581 50.0994 5.47423 -0.186355 142.858 0 0 0 3.30385 7.32033 -3.16304 2.33864 -0.406194 -3.8242 12.4615 14.2323 -2.84187 -4.01865 -0.458184 3.21628 -15.8372 2.5239 -7.61934 -37.331 -8.36296 -32.1956 -5.23295 -10.9328 -25.78 -7.90425 0.463116 -6.69576 19.4995 4.61601 14.1139 49.2536 0.131677 -17.5 3.51462 -16.124 7.43045 -0.979227 -0.032939 3.85306 0.775549 0.524634 6.56182 -0.329496 24.2832 -9.63113 6.9003 9.66797 -0.584258 0.688616 -1.03659 -2.69725 -0.802077 -27.68 -2.32685 -5.93271e-007 60.9869 -7.71608 -23.0811 -10.4269 -2.13472 3.72636 -13.8414 -6.83 
-57.3422 106.897 46.8641 5.5305 -0.612451 145.037 0 0 0 1.69087 6.97892 -3.32829 5.00233 0.0896115 -4.40501 13.8983 13.58 -3.92591 -3.67426 0.754443 2.60506 -15.5585 2.57339 -7.96477 -34.0138 -9.00875 -37.7567 -7.04463 -12.6088 -29.5142 -8.38465 0.521787 -7.10936 19.134 4.40477 13.5385 50.2869 0.843924 -21.2688 3.44823 -13.1898 8.84013 -1.09876 -0.0341243 3.55764 1.07301 2.10531 8.27447 -1.84821 20.3864 -4.59766 3.83706 7.35781 -0.246805 0.419245 -0.177755 -1.7161 -1.00492 -29.9597 -0.972518 -1.14361e-007 54.7123 -4.26101 -23.0639 -9.34416 -1.91057 3.97086 -15.03 -7.47686 
-53.4211 105.968 43.5727 6.27832 -0.910535 146.982 0 0 0 1.37014 7.61721 -3.76454 6.17202 -0.1903 -4.91994 15.8897 13.2417 -5.16895 -4.16188 0.831933 2.24658 -15.0455 2.62 -8.41971 -36.997 -14.7189 -43.9649 -4.76464 -8.45159 -29.5564 -8.21826 0.59059 -8.20679 19.1578 4.26008 12.9719 51.4842 1.64057 -24.5494 4.55333 -16.0695 9.96034 -0.586212 -0.0176187 3.443 1.53792 3.7367 8.85522 -1.97035 16.0766 -3.67863 1.52432 4.58574 -0.0610365 0.516247 -2.1711 -1.69691 -0.529663 -30.7532 0.370876 2.10434e-008 47.4547 -3.59073 -23.0038 -9.77483 -1.99369 4.06036 -15.3456 -5.6785 
-49.4713 104.009 40.194 6.46454 -1.35978 148.982 0 0 0 0.386622 7.90005 -4.40156 7.31106 -0.796647 -5.62539 17.7166 13.7415 -6.13438 -4.49116 0.118528 2.14536 -14.2748 2.53574 -8.41932 -39.5431 -18.0096 -49.5349 -4.97198 -8.33098 -30.9788 -7.82709 0.597001 -8.70999 18.9928 4.32505 13.319 52.395 0.531557 -27.3157 4.23639 -15.2084 10.0884 1.24941 0.0268229 2.45963 1.81067 3.5817 8.40158 -1.6403 14.6156 -6.59164 3.42751 0.821977 -0.0245936 0.491816 -0.214838 -2.01432 -0.852905 -31.5785 0.371545 2.04521e-008 39.9156 -1.62043 -25.8263 -8.25992 -1.89688 4.37371 -17.0176 -7.76216 
-45.4196 101.395 36.7802 6.27114 -1.63326 150.678 0 0 0 -1.11429 7.99431 -4.80937 7.8359 -1.04075 -5.99378 19.8919 13.3043 -6.9981 -4.51218 -0.250417 2.10681 -13.0005 2.46862 -8.77259 -44.4339 -21.1098 -55.8857 -4.31607 -6.75564 -32.6798 -6.47215 0.472619 -8.34425 18.8214 4.33358 13.456 53.9873 0.114471 -28.8685 4.39724 -16.1025 9.59658 1.63375 0.037758 2.6477 2.15296 2.35963 8.3354 -1.14443 19.4199 -8.48263 3.9355 -5.63587 0.193789 1.07242 -2.67677 -4.14673 -1.73777 -32.4938 -2.07409 -2.27045e-008 32.4449 0.82297 -27.954 -5.12611 -1.2767 4.82845 -19.2692 -7.95473 
-41.5874 97.6218 33.6745 7.73164 -1.96657 151.914 0 0 0 -0.88287 8.90285 -4.92154 8.72326 -0.799658 -6.2084 22.733 12.7153 -8.0584 -4.6819 -1.14003 2.12028 -13.2555 2.53768 -8.97039 -47.5419 -22.7175 -62.4759 -4.54559 -6.71168 -34.222 -6.62667 0.53142 -9.15984 20.1944 4.53669 13.4004 54.402 0.0151635 -29.6544 4.26417 -16.0587 8.62049 2.2105 0.0450826 2.33646 4.51996 6.56894 8.64027 -0.0649285 22.8589 -9.20295 8.7162 -22.7725 1.75857 1.14882 -4.08101 -4.30775 -0.945739 -34.3166 -5.87075 9.91631e-008 28.114 3.79944 -25.5491 -2.92465 -0.663234 4.83094 -19.1331 -7.33891 
-37.1243 94.589 29.9848 8.25023 0.137369 151.469 0 0 0 -2.92288 11.1507 -4.25331 8.65238 -1.35812 -5.58432 23.8375 12.1664 -8.45898 -3.30859 -0.710042 1.78406 -17.0577 2.85392 -8.4738 -47.2948 -21.7453 -66.1262 -4.32594 -5.45669 -38.499 -7.31588 0.593913 -9.26987 23.1584 5.04239 13.5049 53.3383 0.162247 -29.934 3.80717 -15.1549 6.70505 2.56766 0.040601 1.81152 6.7671 13.8712 11.4994 -0.880062 23.2332 -14.5751 7.38913 -32.785 2.17645 0.586267 1.99084 -2.7988 -0.891333 -33.2325 -9.32807 0.306391 23.3482 7.27492 -22.5122 -0.184868 -0.0367931 4.79711 -18.9223 -7.1139 
-32.6609 91.9978 25.4728 6.0985 2.18257 149.387 0 0 0 -7.04758 11.2247 -2.57693 9.0265 -1.1684 -4.26011 23.2247 10.9306 -8.492 -1.04082 1.13985 0.791391 -20.6319 3.21547 -8.33717 -47.6803 -19.1299 -63.7866 -3.5634 -3.34322 -46.8767 -5.90313 0.461353 -8.9298 24.5555 4.42665 10.8116 52.7683 0.678698 -25.7481 2.93886 -13.1591 0.874088 2.18642 0.0277832 1.45588 3.90382 22.6863 12.2436 -2.24575 16.7239 -13.3119 8.18662 -33.7318 2.4858 0.971606 -0.0761365 -4.05831 -2.51859 -33.554 -10.8194 1.21913 20.8813 7.80402 -20.5165 2.06212 0.373238 5.24174 -21.2528 -7.90837 
-27.9067 90.162 20.4586 5.71557 1.39338 147.898 0 0 0 -6.77518 9.37902 -2.40081 9.12707 -1.45749 -3.99817 21.5022 12.027 -7.89554 -0.975039 2.04162 0.882069 -22.3666 3.42048 -8.37618 -49.5304 -17.0812 -53.985 -3.51335 -2.52454 -54.3422 -5.16107 0.424233 -9.39186 25.1331 4.12156 9.60016 52.4351 -0.86653 -22.0964 1.66977 -14.9804 -4.0723 1.72654 0.000152033 0.0100898 3.53672 29.4548 13.014 -2.12232 10.3909 -12.956 6.40098 -30.7086 1.75932 0.637671 -5.81142 -1.34763 -0.725171 -33.966 -9.99356 1.73399 20.2894 3.21779 -17.8232 -0.978903 -0.153499 4.57908 -17.8841 -7.0381 
-23.1671 88.9363 15.0065 5.81441 -1.2635 147.083 0 0 0 -3.79377 6.10069 -2.88037 9.37659 -1.61399 -4.31739 17.6424 10.9653 -6.10086 -2.05799 5.51255 1.3059 -25.7562 3.48392 -7.37885 -47.9462 -13.6101 -42.6029 -2.06686 -1.46006 -54.7761 -4.84128 0.41765 -9.85544 24.818 4.43907 10.7365 52.6585 -5.03378 -20.2904 -0.162575 -20.6174 -4.85448 1.78661 -0.0365284 -2.34239 4.9084 31.937 13.7115 -1.82595 9.30423 -11.1541 6.09986 -23.4023 1.26449 1.29493 -17.9825 -0.905788 2.37942 -35.3372 -13.2326 0.142138 24.9819 3.58618 -15.5242 -4.40127 -0.600222 3.92733 -14.8448 -8.08517 
